<!-- Generated by IcoMoon.io -->
<svg version="1.1" xmlns="http://www.w3.org/2000/svg" width="853" height="1024" viewBox="0 0 853 1024">
<title>logo</title>
<g id="icomoon-ignore">
</g>
<path d="M694.709 481.444c81.022-11.291 131.779-13.469 131.779 27.737 0 78.298-186.822 180.183-412.894 180.183-226.031 0-405.76-101.885-405.76-180.183 0-41.243 50.92-39.028 132.106-27.699 0.331-71.967 1.69-144.579-2.557-216.105-2.888-48.705-27.624-172.882-21.852-204.814 66.669-80.998 537.040-80.476 603.587 0 5.816 32.256-19.005 156.071-21.852 204.937-4.205 71.646-2.843 144.015-2.557 215.945zM643.707 496.036c0.237 0.379 0.388 0.835 0.413 1.324v0.007c0 12.541-97.925 41.329-223.106 41.329-125.218 0-230.277-28.788-230.277-41.329 0-0.444 0.164-0.887 0.41-1.331 7.134 13.145 109.1 39.916 229.868 39.916 120.644 0 215.972-26.73 222.693-39.916zM630.511 51.61l-19.377 416.689 44.902 1.492c-0.249 0 16.449-362.742 35.994-400.882-30.304-12.824-8.905-5.041-62.054-22.46l0.044 0.242c-22.555-5.724-51.954-10.523-89.764-15.804 0.192 0.697 0.302 1.497 0.302 2.323 0 0.162-0.004 0.322-0.013 0.482l0.001-0.022c37.065 5.202 67.249 10.121 89.76 15.845l0.205 2.096zM246.688 90.276c1.154 69.789 5.113 297.547 7.089 357.54 57.436-2.379 73.762-2.458 73.762-2.458l-9.974-400.077c-58.631-4.437-92.979 4.154-149.961 19.835 0.554 0.704 1.014 1.517 1.342 2.395l0.020 0.062c29.481-8.1 55.706-13.824 76.937-17.374l0.785 40.076zM229.369 1022.027c101.059 11.571 146.125-29.030 191.191-66.85 45.025 37.82 90.132 78.421 191.15 66.85 300.868-36.854 216.59-291.099 129.673-284.003-15.79 4.676-8.987 28.303-4.905 35.925 15.957-24.153 22.76-18.79 26.262-10.042 71.004 206.954-170.366 60.198-242.439 25.16-49.316-23.989-58.344-20.763-99.741 7.458-41.438-28.221-50.466-31.447-99.779-7.458-72.032 35.038-313.402 181.794-242.442-25.16 3.505-8.748 10.308-14.111 26.262 10.042 4.082-7.622 10.889-31.249-4.864-35.925-86.958-7.096-171.192 247.149 129.632 284.003z"></path>
</svg>
